<?xml version="1.0" standalone="no"?>
<!DOCTYPE svg PUBLIC "-//W3C//DTD SVG 20010904//EN"
 "http://www.w3.org/TR/2001/REC-SVG-20010904/DTD/svg10.dtd">
<svg version="1.0" xmlns="http://www.w3.org/2000/svg"
 width="984.000000pt" height="984.000000pt" viewBox="0 0 984.000000 984.000000"
 preserveAspectRatio="xMidYMid meet">
<metadata>
Created by potrace 1.14, written by Peter Selinger 2001-2017
</metadata>
<g transform="translate(0.000000,984.000000) scale(0.100000,-0.100000)"
fill="#000000" stroke="none">
<path d="M4680 9264 c0 -7 -4 -14 -8 -14 -5 0 -14 -15 -20 -32 -6 -18 -23 -64
-37 -103 -30 -77 -74 -216 -81 -255 -3 -14 -7 -33 -10 -42 -3 -9 -7 -27 -9
-40 -3 -13 -9 -45 -15 -73 -5 -27 -12 -68 -15 -90 -4 -22 -13 -83 -21 -135 -8
-52 -17 -129 -20 -170 -3 -41 -7 -102 -10 -135 -5 -56 -6 -324 -2 -620 3 -241
-10 -282 -278 -833 -63 -128 -114 -238 -114 -243 0 -5 -5 -9 -10 -9 -6 0 -9
-3 -8 -7 2 -8 -271 -562 -320 -648 -45 -81 -85 -192 -98 -275 -2 -14 -7 -36
-10 -50 -3 -14 -5 -60 -5 -103 2 -201 86 -368 231 -459 19 -12 37 -25 40 -28
9 -12 135 -58 175 -65 22 -3 72 -8 110 -10 39 -2 104 -7 147 -10 42 -3 122 -7
179 -10 56 -3 106 -8 110 -12 4 -5 9 -117 11 -250 2 -133 7 -245 10 -249 4 -3
3 -16 -2 -29 -5 -13 -6 -25 -3 -28 3 -4 7 -39 8 -79 6 -119 14 -259 20 -328 3
-36 7 -96 10 -135 2 -38 5 -70 5 -70 2 0 8 -52 14 -125 3 -36 8 -83 11 -105
11 -87 15 -121 20 -148 3 -15 9 -53 15 -85 10 -58 16 -92 25 -137 3 -14 -3
-44 -14 -68 -36 -80 -68 -162 -85 -217 -10 -30 -20 -62 -23 -70 -8 -18 -7 -16
-18 -65 -4 -22 -9 -44 -11 -50 -1 -5 -5 -28 -9 -50 -3 -22 -9 -53 -12 -70 -3
-16 -6 -50 -7 -75 -1 -25 -5 -51 -9 -57 -4 -7 -3 -14 3 -18 7 -4 7 -12 0 -24
-5 -10 -8 -20 -5 -22 2 -2 7 -31 10 -64 17 -146 89 -305 191 -423 63 -72 242
-195 344 -236 55 -22 158 -56 185 -61 11 -2 34 -7 50 -10 113 -23 422 -49 540
-47 89 2 305 13 329 17 32 5 107 14 161 20 36 4 83 12 150 25 28 5 61 12 75
14 14 3 25 5 25 6 0 2 37 8 85 14 19 3 35 5 35 6 0 2 18 6 62 14 18 4 70 15
115 27 46 11 97 22 113 25 17 3 45 10 63 16 18 5 41 11 50 13 9 2 17 4 17 5 0
1 7 3 15 5 8 1 27 6 41 10 l26 6 -4 -93 c-1 -51 -5 -111 -7 -133 -14 -129 -23
-193 -31 -235 -3 -14 -8 -38 -11 -55 -3 -16 -10 -48 -15 -70 -5 -22 -12 -51
-15 -65 -2 -14 -8 -38 -12 -55 -20 -73 45 -173 127 -195 52 -14 93 -8 139 20
29 18 73 75 74 97 0 4 7 28 15 53 7 25 16 57 18 72 2 16 8 43 14 62 5 19 6 37
3 40 -3 3 0 6 7 6 7 0 9 4 6 10 -3 5 -1 36 4 67 27 151 39 290 40 486 1 63 5
97 12 97 19 0 395 141 429 161 8 5 22 12 30 14 87 31 481 246 518 282 7 7 17
13 22 13 5 0 15 6 22 13 7 6 36 28 63 47 28 19 52 38 53 42 2 4 9 8 16 8 13 0
144 125 198 190 21 25 42 50 48 57 5 7 10 15 10 18 0 3 16 27 35 54 19 26 35
53 35 60 0 6 5 11 10 11 6 0 9 3 8 8 -1 4 14 39 34 77 19 39 50 106 68 150 17
44 35 89 40 100 14 35 121 329 125 345 2 8 4 15 5 15 1 0 3 7 5 15 3 15 67
185 85 225 9 22 23 57 25 65 0 3 9 23 19 45 10 22 28 62 40 90 34 81 126 256
142 272 8 8 14 18 14 23 0 4 30 39 66 77 37 37 71 79 76 93 61 158 -95 301
-244 224 -66 -34 -190 -184 -259 -314 -13 -25 -27 -47 -30 -50 -14 -13 -102
-209 -164 -365 -26 -66 -53 -133 -60 -150 -16 -40 -24 -60 -100 -275 -36 -102
-69 -192 -72 -200 -3 -8 -7 -17 -8 -20 -1 -3 -7 -18 -13 -33 -7 -16 -12 -31
-12 -33 0 -21 -139 -286 -159 -304 -4 -3 -19 -23 -36 -45 -16 -22 -50 -60 -75
-84 -51 -49 -232 -181 -248 -181 -6 0 -12 -4 -14 -8 -9 -22 -300 -179 -468
-252 -202 -88 -749 -270 -890 -296 -14 -3 -43 -10 -65 -16 -22 -5 -51 -12 -65
-14 -14 -3 -38 -9 -55 -14 -16 -4 -46 -11 -65 -14 -19 -3 -46 -8 -60 -11 -31
-7 -169 -34 -250 -49 -14 -3 -43 -8 -65 -11 -22 -3 -53 -8 -70 -10 -52 -9
-108 -15 -175 -21 -89 -7 -404 -7 -462 0 -26 3 -73 8 -105 11 -135 13 -231 35
-313 73 -19 8 -38 16 -41 16 -14 2 -79 41 -79 48 0 5 -6 8 -14 8 -8 0 -39 24
-69 54 -101 100 -143 233 -123 396 7 52 9 61 30 151 28 123 52 187 126 339 36
75 41 93 38 143 -2 31 -6 57 -10 57 -4 0 -7 8 -6 18 0 9 -7 55 -16 102 -9 47
-19 100 -22 119 -3 18 -8 43 -10 55 -4 19 -10 74 -19 161 -1 17 -4 35 -6 42
-3 9 3 15 14 12 2 -1 16 -4 77 -19 25 -7 52 -14 60 -17 19 -7 26 -9 125 -23
80 -12 224 -15 280 -6 17 2 50 8 75 11 76 12 82 14 183 46 53 18 97 36 97 41
0 4 6 8 13 8 22 0 67 88 67 132 0 129 -136 218 -251 165 -188 -87 -469 -79
-696 19 -29 13 -53 21 -53 18 0 -3 -9 4 -20 14 -16 14 -20 35 -24 108 -6 102
-18 488 -20 614 l-1 85 105 -3 c58 -1 141 -3 186 -5 73 -2 84 1 122 26 41 26
88 99 77 117 -3 5 -1 11 4 15 6 3 7 15 2 28 -10 25 -11 31 -11 51 0 17 -57 79
-87 95 -25 13 -59 18 -180 26 -48 3 -108 8 -133 10 -61 6 -235 16 -350 20 -52
2 -95 4 -95 5 0 1 -40 3 -90 5 -395 17 -416 20 -472 62 -115 88 -94 325 48
525 11 14 19 29 19 33 0 4 44 96 97 204 53 108 97 198 98 201 1 3 48 100 104
215 98 200 242 497 261 540 68 152 103 247 126 340 19 72 21 172 14 590 -3
184 4 340 25 520 3 22 7 54 10 70 2 17 6 46 9 65 3 19 10 60 16 90 6 30 13 69
15 85 15 89 90 313 151 451 3 7 -23 23 -63 39 -37 14 -84 34 -103 42 -140 61
-150 64 -150 47z"/>
<path d="M6157 7523 c-2 -1 -27 -5 -57 -8 -110 -12 -254 -53 -342 -95 -31 -16
-58 -27 -60 -25 -7 7 -145 -85 -162 -109 -40 -53 -25 -158 28 -196 69 -49 106
-47 231 17 79 40 244 103 271 103 2 0 -8 -23 -23 -52 -58 -111 -33 -242 62
-326 108 -95 268 -84 368 27 44 48 72 135 64 195 -9 63 -11 69 -35 109 l-22
38 38 -7 c42 -8 250 -82 262 -94 3 -3 28 -16 56 -29 81 -37 155 -19 202 50 30
42 27 120 -5 165 -17 23 -176 117 -203 119 -3 0 -9 3 -15 7 -12 7 -202 68
-230 74 -11 2 -43 8 -71 14 -28 6 -71 13 -95 16 -47 5 -258 11 -262 7z"/>
<path d="M565 4946 c-46 -21 -81 -57 -110 -112 -14 -27 -41 -77 -59 -112 -19
-35 -34 -65 -35 -67 -3 -6 -50 -114 -66 -150 -8 -16 -21 -48 -30 -70 -19 -44
-104 -281 -110 -305 -2 -8 -16 -55 -30 -105 -25 -91 -69 -280 -79 -345 -3 -19
-8 -46 -10 -60 -6 -36 -15 -105 -23 -185 -10 -95 -9 -495 1 -575 5 -36 10 -80
11 -98 1 -18 5 -35 8 -38 3 -3 3 -12 1 -19 -3 -7 -1 -16 5 -19 6 -4 8 -13 5
-20 -3 -7 5 -55 16 -107 12 -52 23 -101 25 -110 15 -69 50 -186 58 -196 5 -7
7 -13 3 -13 -4 0 0 -13 9 -30 9 -16 14 -30 11 -30 -5 0 43 -126 75 -198 59
-132 118 -247 176 -342 81 -135 86 -142 100 -158 7 -7 13 -17 13 -22 0 -5 6
-15 12 -22 7 -7 45 -56 84 -108 39 -53 77 -102 85 -111 8 -8 38 -44 68 -79 93
-111 324 -336 451 -439 83 -68 165 -127 193 -139 15 -7 54 -12 86 -12 111 0
204 93 203 203 0 90 -34 144 -147 232 -27 22 -55 44 -62 50 -6 5 -31 26 -54
45 -78 64 -188 168 -284 271 -57 62 -87 96 -183 214 -4 6 -19 26 -32 45 -14
19 -28 37 -31 40 -36 28 -238 387 -291 515 -28 67 -60 149 -63 160 -1 6 -5 17
-8 25 -9 22 -46 148 -51 174 -3 11 -7 31 -10 44 -4 12 -8 32 -11 45 -35 141
-57 352 -58 532 0 86 10 284 17 325 3 14 7 48 11 75 3 28 15 91 26 140 11 50
24 108 29 130 5 22 16 65 25 95 9 30 18 63 20 72 20 88 159 437 206 516 10 18
19 40 19 48 0 8 5 14 10 14 6 0 10 5 10 11 0 7 10 28 22 48 13 20 23 38 24 41
0 3 5 21 11 41 13 45 1 120 -26 157 -61 85 -183 125 -266 88z"/>
<path d="M1840 4838 c-55 -31 -87 -66 -135 -148 -47 -80 -167 -328 -180 -370
-4 -14 -13 -38 -20 -55 -16 -35 -65 -184 -70 -211 -2 -11 -4 -20 -5 -21 -2 -2
-3 -6 -4 -10 -1 -5 -5 -17 -9 -28 -3 -11 -8 -31 -11 -45 -2 -14 -9 -46 -15
-73 -6 -26 -13 -62 -16 -80 -3 -17 -8 -50 -11 -72 -9 -53 -14 -457 -6 -470 3
-5 7 -16 8 -25 11 -111 46 -272 78 -358 8 -20 17 -46 22 -57 4 -11 8 -25 9
-30 12 -52 150 -315 201 -382 13 -17 24 -36 24 -42 0 -6 4 -11 8 -11 4 0 15
-12 24 -27 9 -16 25 -37 35 -48 10 -11 44 -52 75 -90 95 -116 274 -293 383
-376 17 -13 32 -26 35 -29 3 -3 21 -17 40 -30 19 -13 37 -27 40 -31 3 -3 29
-17 57 -29 181 -77 356 99 279 281 -11 25 -40 55 -93 95 -179 133 -346 293
-468 449 -16 21 -35 44 -41 50 -6 6 -15 21 -18 33 -4 12 -11 22 -16 22 -11 0
-101 156 -139 241 -31 70 -70 175 -76 209 -2 12 -6 29 -9 38 -3 9 -7 28 -10
42 -3 14 -8 36 -11 50 -12 55 -19 141 -19 260 -1 165 8 235 49 400 3 11 7 28
9 38 21 86 113 333 151 402 10 19 20 40 21 45 1 6 23 48 50 95 99 177 105 204
60 292 -51 102 -189 154 -276 106z"/>
<path d="M3072 4562 c-52 -16 -92 -63 -142 -165 -102 -210 -150 -417 -150
-646 0 -183 24 -326 81 -481 19 -49 124 -254 142 -276 9 -11 37 -48 64 -84
157 -213 317 -345 432 -357 100 -10 212 80 216 174 0 12 3 25 7 28 9 10 -13
88 -36 120 -11 17 -36 44 -56 60 -42 36 -185 179 -220 221 -49 58 -135 208
-132 227 1 4 -2 7 -6 7 -5 0 -9 6 -10 13 0 6 -13 50 -27 97 -14 47 -27 111
-29 142 -2 31 -6 60 -9 65 -2 4 -1 17 3 28 4 11 4 34 -1 52 -4 18 -4 33 0 33
3 0 7 12 7 28 2 25 5 45 19 117 7 38 64 204 78 230 6 11 12 22 13 25 0 3 9 23
19 45 28 60 26 151 -5 195 -32 47 -58 70 -100 88 -39 17 -123 25 -158 14z"/>
</g>
</svg>
